# Exported from 3dStudio
mtllib Shreddies.mtl

o pasta_1
v -6.48351 0 2.48751
v -6.48351 0 -2.48751
v 6.48351 0 -2.48751
v 6.48351 0 2.48751
v -6.48351 22.0261 2.48744
v 6.48351 22.0261 2.48744
v 6.48351 22 -2.48751
v -6.48351 22 -2.48751
v -6.48351 0.0209897 2.49999
v 6.48351 0.0209897 2.49999
v 6.48351 21.979 2.49999
v -6.48351 21.979 2.49999
v 6.49999 0.0209897 2.48751
v 6.49999 0.0209897 -2.48751
v 6.49999 21.979 -2.48751
v 6.49999 21.979 2.48751
v 6.48351 0.0209897 -2.49999
v -6.48351 0.0209897 -2.49999
v -6.48351 21.979 -2.49999
v 6.48351 21.979 -2.49999
v -6.49999 0.0209897 -2.48751
v -6.49999 0.0209897 2.48751
v -6.49999 21.979 2.48751
v -6.49999 21.979 -2.48751
v -6.49 0.00999744 2.49999
v -6.49999 0.00999744 2.49
v -6.49 7.3152e-06 2.49
v 6.49 7.3152e-06 2.49
v 6.49999 0.00999744 2.49
v 6.49 0.00999744 2.49999
v -6.49999 0.00999744 -2.49
v -6.49 0.00999744 -2.49999
v -6.49 7.3152e-06 -2.49
v 6.49 7.3152e-06 -2.49
v 6.49 0.00999744 -2.49999
v 6.49999 0.00999744 -2.49
v -6.49 21.99 2.49999
v -6.49 22 2.49
v -6.49999 21.99 2.49
v 6.49999 21.99 2.49
v 6.49 22 2.49
v 6.49 21.99 2.49999
v -6.49999 21.99 -2.49
v -6.49 22 -2.49
v -6.49 21.99 -2.49999
v 6.49 21.99 -2.49999
v 6.49 22 -2.49
v 6.49999 21.99 -2.49
v -6.49 4.8768e-06 2.48751
v -6.49999 0.009995 2.48751
v -6.49999 0.009995 -2.48751
v -6.49 4.8768e-06 -2.48751
v -6.48351 4.8768e-06 -2.49
v -6.48351 0.009995 -2.49999
v 6.48351 0.009995 -2.49999
v 6.48351 4.8768e-06 -2.49
v 6.49 4.8768e-06 -2.48751
v 6.49999 0.009995 -2.48751
v 6.49999 0.009995 2.48751
v 6.49 4.8768e-06 2.48751
v 6.48351 4.8768e-06 2.49
v 6.48351 0.009995 2.49999
v -6.48351 0.009995 2.49999
v -6.48351 4.8768e-06 2.49
v -6.48351 22 2.49
v -6.48351 21.99 2.49999
v 6.48351 21.99 2.49999
v 6.48351 22 2.49
v 6.49 22 2.48751
v 6.49999 21.99 2.48751
v 6.49999 21.99 -2.48751
v 6.49 22 -2.48751
v 6.48351 22 -2.49
v 6.48351 21.99 -2.49999
v -6.48351 21.99 -2.49999
v -6.48351 22 -2.49
v -6.49 22 -2.48751
v -6.49999 21.99 -2.48751
v -6.49999 21.99 2.48751
v -6.49 22 2.48751
v 6.49 0.0209897 2.49999
v 6.49999 0.0209897 2.49
v 6.49999 21.979 2.49
v 6.49 21.979 2.49999
v -6.49 21.979 2.49999
v -6.49999 21.979 2.49
v -6.49999 0.0209897 2.49
v -6.49 0.0209897 2.49999
v 6.49999 0.0209897 -2.49
v 6.49 0.0209897 -2.49999
v 6.49 21.979 -2.49999
v 6.49999 21.979 -2.49
v -6.49 0.0209897 -2.49999
v -6.49999 0.0209897 -2.49
v -6.49999 21.979 -2.49
v -6.49 21.979 -2.49999
v 6.48351 22 2.49
v 6.48351 22.0261 2.48992
v -6.48351 22.0261 2.48992
v -6.48351 22 2.49
v 6.49 22 2.48834
v 6.49 22 -2.48668
v 6.49 22.0261 2.48827
v -6.49 22 -2.48668
v -6.49 22 2.48834
v -6.49 22.0261 2.48827
vt 0.141375 0.196113
vt 0.141375 0.0586408
vt 0.499686 0.0586408
vt 0.499686 0.196113
vt 0.996364 0.941359
vt 0.638168 0.941359
vt 0.638168 0.803933
vt 0.996364 0.803933
vt 0.14117 0.196771
vt 0.499481 0.196771
vt 0.499481 0.803525
vt 0.14117 0.803525
vt 0.500128 0.196771
vt 0.637603 0.196771
vt 0.637603 0.803525
vt 0.500128 0.803525
vt 0.63809 0.196771
vt 0.996403 0.196771
vt 0.996403 0.803525
vt 0.63809 0.803525
vt 0.0032106 0.196771
vt 0.140683 0.196771
vt 0.140683 0.803525
vt 0.0032106 0.803525
vt 0.141195 0.196458
vt 0.140919 0.196182
vt 0.141195 0.196182
vt 0.499866 0.196182
vt 0.500141 0.196182
vt 0.499866 0.196458
vt 0.140919 0.0585713
vt 0.141195 0.0582956
vt 0.141195 0.0585713
vt 0.499866 0.0585713
vt 0.499866 0.0582956
vt 0.500141 0.0585713
vt 0.996543 0.941704
vt 0.996543 0.941429
vt 0.99682 0.941429
vt 0.637716 0.941429
vt 0.637991 0.941429
vt 0.637991 0.941704
vt 0.99682 0.803863
vt 0.996543 0.803863
vt 0.996543 0.803588
vt 0.637991 0.803588
vt 0.637991 0.803863
vt 0.637716 0.803863
vt 0.141195 0.196113
vt 0.140919 0.196113
vt 0.140919 0.0586408
vt 0.141195 0.0586408
vt 0.141375 0.0585713
vt 0.141375 0.0582956
vt 0.499686 0.0582956
vt 0.499686 0.0585713
vt 0.499866 0.0586408
vt 0.500141 0.0586408
vt 0.500141 0.196113
vt 0.499866 0.196113
vt 0.499686 0.196182
vt 0.499686 0.196458
vt 0.141375 0.196458
vt 0.141375 0.196182
vt 0.996364 0.941429
vt 0.996364 0.941704
vt 0.638168 0.941704
vt 0.638168 0.941429
vt 0.637991 0.941359
vt 0.637716 0.941359
vt 0.637716 0.803933
vt 0.637991 0.803933
vt 0.638168 0.803863
vt 0.638168 0.803588
vt 0.996364 0.803588
vt 0.996364 0.803863
vt 0.996543 0.803933
vt 0.99682 0.803933
vt 0.99682 0.941359
vt 0.996543 0.941359
vt 0.499661 0.196771
vt 0.499937 0.196771
vt 0.499937 0.803525
vt 0.499661 0.803525
vt 0.14099 0.803525
vt 0.140715 0.803525
vt 0.140715 0.196771
vt 0.14099 0.196771
vt 0.637634 0.196771
vt 0.637912 0.196771
vt 0.637912 0.803525
vt 0.637634 0.803525
vt 0.996581 0.196771
vt 0.996859 0.196771
vt 0.996859 0.803525
vt 0.996581 0.803525
vt 0.638168 0.941429
vt 0.638168 0.941425
vt 0.996364 0.941425
vt 0.996364 0.941429
vt 0.637991 0.941383
vt 0.637991 0.803958
vt 0.637991 0.941379
vt 0.996543 0.803958
vt 0.996543 0.941383
vt 0.996543 0.941379
vt 0.14099 0.196467
vt 0.140715 0.196467
vt 0.14117 0.196467
vt 0.499481 0.196467
vt 0.14099 0.196467
vt 0.14117 0.196467
vt 0.00314118 0.196771
vt 0.00314118 0.803525
vt 0.996859 0.196467
vt 0.996581 0.196467
vt 0.0032106 0.196467
vt 0.140683 0.196467
vt 0.00314118 0.196467
vt 0.0032106 0.196467
vt 0.00314118 0.196771
vt 0.996364 0.941704
vt 0.638168 0.941704
vt 0.996543 0.941704
vt 0.99682 0.941429
vt 0.996543 0.941704
vt 0.996364 0.941704
vt 0.500063 0.803525
vt 0.500063 0.196771
vt 0.637716 0.941359
vt 0.637716 0.803933
vt 0.637716 0.941429
vt 0.637991 0.941704
vt 0.637716 0.941429
vt 0.637716 0.941359
vt 0.99682 0.803933
vt 0.99682 0.941359
vt 0.99682 0.803863
vt 0.996543 0.803588
vt 0.99682 0.803863
vt 0.99682 0.803933
vt 0.638168 0.803588
vt 0.996364 0.803588
vt 0.637991 0.803588
vt 0.637716 0.803863
vt 0.637991 0.803588
vt 0.638168 0.803588
vt 0.140752 0.196771
vt 0.140752 0.803525
vt 0.140752 0.196467
vt 0.140752 0.196771
vt 0.140683 0.196467
vt 0.500128 0.196467
vt 0.637603 0.196467
vt 0.499937 0.196467
vt 0.499661 0.196467
vt 0.500063 0.196467
vt 0.500128 0.196467
vt 0.500063 0.196771
vt 0.499661 0.196467
vt 0.499481 0.196467
vt 0.996403 0.196467
vt 0.63809 0.196467
vt 0.996581 0.196467
vt 0.996403 0.196467
vt 0.637912 0.196467
vt 0.637634 0.196467
vt 0.637912 0.196467
vt 0.63809 0.196467
vt 0.637672 0.196771
vt 0.637672 0.803525
vt 0.637672 0.196467
vt 0.637672 0.196771
vt 0.637603 0.196467
vt 0.99682 0.941359
vt 0.99682 0.941429
vt 0.638168 0.941704
vt 0.637991 0.941704
vt 0.996364 0.803588
vt 0.996543 0.803588
vt 0.637716 0.803933
vt 0.637716 0.803863
vn -0.000375321 -0.998309 0.000734281
vn -0.000281471 -0.998309 -0.000979112
vn 0.000375321 -0.998309 -0.000734281
vn 0.000281471 -0.998309 0.000979112
vn -0.000167134 0.998306 -0.00261428
vn 0.000167134 0.998306 -0.00261428
vn 0.000167134 0.998306 -0.00261428
vn -0.000167134 0.998306 -0.00261428
vn 0 0 0.998309
vn 0 0 0.998309
vn 0 0 0.998309
vn 0 0 0.998309
vn 0.998309 0 0
vn 0.998309 0 0
vn 0.998309 0 0
vn 0.998309 0 0
vn 0 0 -0.998309
vn 0 0 -0.998309
vn 0 0 -0.998309
vn 0 0 -0.998309
vn -0.998309 0 0
vn -0.998309 0 0
vn -0.998309 0 0
vn -0.998309 0 0
vn -0.366776 -0.366982 0.854068
vn -0.854077 -0.366986 0.36677
vn -0.36683 -0.854108 0.366883
vn 0.3667 -0.854054 0.367141
vn 0.854078 -0.366986 0.366769
vn 0.366776 -0.366982 0.854069
vn -0.854078 -0.366986 -0.366769
vn -0.366776 -0.366982 -0.854069
vn -0.3667 -0.854054 -0.367141
vn 0.36683 -0.854108 -0.366884
vn 0.366776 -0.366982 -0.854068
vn 0.854077 -0.366986 -0.36677
vn -0.366619 0.367071 0.854097
vn -0.692148 0.60371 0.391379
vn -0.853477 0.366801 0.368388
vn 0.854144 0.367091 0.366506
vn 0.693229 0.603884 0.389186
vn 0.36734 0.366961 0.853842
vn -0.854232 0.36677 -0.366625
vn -0.366853 0.854158 -0.366719
vn -0.366739 0.366749 -0.854185
vn 0.366739 0.366749 -0.854185
vn 0.366853 0.854158 -0.366719
vn 0.854232 0.36677 -0.366625
vn -0.382851 -0.923794 0.000452821
vn -0.923793 -0.382857 0.000187576
vn -0.923793 -0.382857 -0.000187576
vn -0.382764 -0.92383 -0.000718159
vn -0.000173541 -0.923611 -0.383293
vn -7.18842e-05 -0.382776 -0.923829
vn 7.19176e-05 -0.382776 -0.923829
vn 0.000275307 -0.923705 -0.383067
vn 0.382851 -0.923794 -0.000452908
vn 0.923793 -0.382857 -0.000187663
vn 0.923793 -0.382857 0.000187663
vn 0.382764 -0.92383 0.000718246
vn 0.000173574 -0.923611 0.383293
vn 7.19176e-05 -0.382776 0.923829
vn -7.18843e-05 -0.382776 0.923829
vn -0.000275274 -0.923705 0.383067
vn 0 0.705819 0.706005
vn 0 0.382541 0.923926
vn 0.000787081 0.38254 0.923926
vn 0.00145223 0.705819 0.706004
vn 0.862468 0.505233 0
vn 0.92389 0.382622 0
vn 0.92389 0.382622 0
vn 0.706012 0.70581 0
vn 0 0.923893 -0.38262
vn 0 0.382541 -0.923926
vn 0 0.382541 -0.923926
vn 0 0.923893 -0.38262
vn -0.706012 0.70581 0
vn -0.92389 0.382622 0
vn -0.923889 0.382619 0.00205379
vn -0.862466 0.505229 0.00271192
vn 0.382496 0 0.923946
vn 0.923959 0 0.382463
vn 0.923959 0 0.382463
vn 0.382496 0 0.923946
vn -0.382496 0 0.923946
vn -0.923959 0 0.382463
vn -0.923959 0 0.382464
vn -0.382496 0 0.923946
vn 0.923959 0 -0.382464
vn 0.382496 0 -0.923946
vn 0.382496 0 -0.923946
vn 0.923959 0 -0.382463
vn -0.382496 0 -0.923946
vn -0.923959 0 -0.382463
vn -0.923959 0 -0.382463
vn -0.382496 0 -0.923946
vn 0.124604 0.00277703 0.990515
vn 0.0877443 0.710764 0.697508
vn -0.0877445 0.710762 0.69751
vn -0.124604 0.00277257 0.990515
vn 0.917009 0.00111041 0.395408
vn 0.447344 0.89418 -0.00234181
vn 0.488883 0.784438 0.377423
vn -0.447344 0.89418 -0.00234181
vn -0.917009 0.00110679 0.395408
vn -0.488884 0.784437 0.377424
g pasta
usemtl wrapper
f 25/25/25 26/26/26 27/27/27
f 28/28/28 29/29/29 30/30/30
f 31/31/31 32/32/32 33/33/33
f 34/34/34 35/35/35 36/36/36
f 37/37/37 38/38/38 39/39/39
f 40/40/40 41/41/41 42/42/42
f 43/43/43 44/44/44 45/45/45
f 46/46/46 47/47/47 48/48/48
f 101/101/101 102/102/102 103/103/103
f 104/104/104 105/105/105 106/106/106
f 105/105/105 80/80/80 38/38/38
f 69/69/69 101/101/101 41/41/41
f 77/77/77 104/104/104 44/44/44
f 102/102/102 72/72/72 47/47/47
f 99/99/99 5/5/5 106/106/106
f 103/103/103 6/6/6 98/98/98
f 1/1/1 2/2/2 3/3/3 4/4/4
f 5/5/5 6/6/6 7/7/7 8/8/8
f 9/9/9 10/10/10 11/11/11 12/12/12
f 13/13/13 14/14/14 15/15/15 16/16/16
f 17/17/17 18/18/18 19/19/19 20/20/20
f 21/21/21 22/22/22 23/23/23 24/24/24
f 49/49/49 50/50/50 51/51/51 52/52/52
f 53/53/53 54/54/54 55/55/55 56/56/56
f 57/57/57 58/58/58 59/59/59 60/60/60
f 61/61/61 62/62/62 63/63/63 64/64/64
f 65/65/65 66/66/66 67/67/67 68/68/68
f 69/69/69 70/70/70 71/71/71 72/72/72
f 73/73/73 74/74/74 75/75/75 76/76/76
f 77/77/77 78/78/78 79/79/79 80/80/80
f 81/81/81 82/82/82 83/83/83 84/84/84
f 85/85/85 86/86/86 87/87/87 88/88/88
f 89/89/89 90/90/90 91/91/91 92/92/92
f 93/93/93 94/94/94 95/95/95 96/96/96
f 97/97/97 98/98/98 99/99/99 100/100/100
f 88/88/88 9/9/9 12/12/12 85/85/85
f 25/107/25 88/88/88 87/87/87 26/108/26
f 63/63/63 25/25/25 27/27/27 64/64/64
f 9/9/9 63/109/63 62/110/62 10/10/10
f 25/111/25 63/112/63 9/9/9 88/88/88
f 60/60/60 4/4/4 3/3/3 57/57/57
f 28/28/28 60/60/60 59/59/59 29/29/29
f 61/61/61 28/28/28 30/30/30 62/62/62
f 4/4/4 61/61/61 64/64/64 1/1/1
f 28/28/28 61/61/61 4/4/4 60/60/60
f 94/113/94 21/21/21 24/24/24 95/114/95
f 31/115/31 94/94/94 93/93/93 32/116/32
f 51/51/51 31/31/31 33/33/33 52/52/52
f 21/21/21 51/117/51 50/118/50 22/22/22
f 31/119/31 51/120/51 21/21/21 94/121/94
f 56/56/56 3/3/3 2/2/2 53/53/53
f 34/34/34 56/56/56 55/55/55 35/35/35
f 57/57/57 34/34/34 36/36/36 58/58/58
f 34/34/34 57/57/57 3/3/3 56/56/56
f 66/66/66 12/122/12 11/123/11 67/67/67
f 37/37/37 66/66/66 65/65/65 38/38/38
f 85/124/85 37/37/37 39/39/39 86/125/86
f 37/37/37 85/126/85 12/127/12 66/66/66
f 16/16/16 83/128/83 82/129/82 13/13/13
f 70/70/70 16/130/16 15/131/15 71/71/71
f 40/40/40 70/70/70 69/69/69 41/41/41
f 83/132/83 40/40/40 42/42/42 84/133/84
f 40/40/40 83/134/83 16/135/16 70/70/70
f 78/78/78 24/136/24 23/137/23 79/79/79
f 43/43/43 78/78/78 77/77/77 44/44/44
f 95/138/95 43/43/43 45/45/45 96/139/96
f 43/43/43 95/140/95 24/141/24 78/78/78
f 20/20/20 91/91/91 90/90/90 17/17/17
f 74/74/74 20/142/20 19/143/19 75/75/75
f 46/46/46 74/74/74 73/73/73 47/47/47
f 91/144/91 46/46/46 48/48/48 92/145/92
f 46/46/46 91/146/91 20/147/20 74/74/74
f 22/22/22 87/148/87 86/149/86 23/23/23
f 26/26/26 50/50/50 49/49/49 27/27/27
f 26/150/26 87/151/87 22/22/22 50/152/50
f 1/1/1 49/49/49 52/52/52 2/2/2
f 27/27/27 49/49/49 1/1/1 64/64/64
f 13/13/13 59/153/59 58/154/58 14/14/14
f 29/155/29 82/82/82 81/81/81 30/156/30
f 29/157/29 59/158/59 13/13/13 82/159/82
f 10/10/10 81/81/81 84/84/84 11/11/11
f 30/160/30 81/81/81 10/10/10 62/161/62
f 18/18/18 93/93/93 96/96/96 19/19/19
f 54/162/54 18/18/18 17/17/17 55/163/55
f 32/32/32 54/54/54 53/53/53 33/33/33
f 32/164/32 93/93/93 18/18/18 54/165/54
f 33/33/33 53/53/53 2/2/2 52/52/52
f 35/166/35 90/90/90 89/89/89 36/167/36
f 35/168/35 55/169/55 17/17/17 90/90/90
f 14/14/14 89/170/89 92/171/92 15/15/15
f 36/172/36 89/173/89 14/14/14 58/174/58
f 100/100/100 65/65/65 68/68/68 97/97/97
f 105/105/105 100/100/100 99/99/99 106/106/106
f 80/80/80 105/105/105 104/104/104 77/77/77
f 38/38/38 80/80/80 79/79/79 39/39/39
f 65/65/65 100/100/100 105/105/105 38/38/38
f 39/39/39 79/79/79 23/175/23 86/176/86
f 101/101/101 69/69/69 72/72/72 102/102/102
f 97/97/97 101/101/101 103/103/103 98/98/98
f 41/41/41 68/68/68 67/67/67 42/42/42
f 101/101/101 97/97/97 68/68/68 41/41/41
f 42/42/42 67/67/67 11/177/11 84/178/84
f 8/8/8 104/104/104 106/106/106 5/5/5
f 76/76/76 8/8/8 7/7/7 73/73/73
f 44/44/44 76/76/76 75/75/75 45/45/45
f 104/104/104 8/8/8 76/76/76 44/44/44
f 45/45/45 75/75/75 19/179/19 96/180/96
f 102/102/102 7/7/7 6/6/6 103/103/103
f 47/47/47 72/72/72 71/71/71 48/48/48
f 73/73/73 7/7/7 102/102/102 47/47/47
f 48/48/48 71/71/71 15/181/15 92/182/92
f 5/5/5 99/99/99 98/98/98 6/6/6
