# Exported from DAZ Studio 4.8
mtllib CornPops.mtl

o detergent_1
v -7.4825 0 2.48751
v -7.4825 0 -2.48751
v 7.4825 0 -2.48751
v 7.4825 0 2.48751
v -7.4825 20.0261 2.48744
v 7.4825 20.0261 2.48744
v 7.4825 20 -2.48751
v -7.4825 20 -2.48751
v -7.4825 0.01999 2.49999
v 7.4825 0.01999 2.49999
v 7.4825 19.98 2.49999
v -7.4825 19.98 2.49999
v 7.50001 0.01999 2.48751
v 7.50001 0.01999 -2.48751
v 7.50001 19.98 -2.48751
v 7.50001 19.98 2.48751
v 7.4825 0.01999 -2.49999
v -7.4825 0.01999 -2.49999
v -7.4825 19.98 -2.49999
v 7.4825 19.98 -2.49999
v -7.50001 0.01999 -2.48751
v -7.50001 0.01999 2.48751
v -7.50001 19.98 2.48751
v -7.50001 19.98 -2.48751
v -7.49001 0.00999744 2.49999
v -7.49998 0.00999744 2.49
v -7.49001 7.3152e-06 2.49
v 7.49001 7.3152e-06 2.49
v 7.49998 0.00999744 2.49
v 7.49001 0.00999744 2.49999
v -7.49998 0.00999744 -2.49
v -7.49001 0.00999744 -2.49999
v -7.49001 7.3152e-06 -2.49
v 7.49001 7.3152e-06 -2.49
v 7.49001 0.00999744 -2.49999
v 7.49998 0.00999744 -2.49
v -7.49001 19.99 2.49999
v -7.49001 20 2.49
v -7.49998 19.99 2.49
v 7.49998 19.99 2.49
v 7.49001 20 2.49
v 7.49001 19.99 2.49999
v -7.49998 19.99 -2.49
v -7.49001 20 -2.49
v -7.49001 19.99 -2.49999
v 7.49001 19.99 -2.49999
v 7.49001 20 -2.49
v 7.49998 19.99 -2.49
v -7.49001 4.8768e-06 2.48751
v -7.50001 0.009995 2.48751
v -7.50001 0.009995 -2.48751
v -7.49001 4.8768e-06 -2.48751
v -7.4825 4.8768e-06 -2.49
v -7.4825 0.009995 -2.49999
v 7.4825 0.009995 -2.49999
v 7.4825 4.8768e-06 -2.49
v 7.49001 4.8768e-06 -2.48751
v 7.50001 0.009995 -2.48751
v 7.50001 0.009995 2.48751
v 7.49001 4.8768e-06 2.48751
v 7.4825 4.8768e-06 2.49
v 7.4825 0.009995 2.49999
v -7.4825 0.009995 2.49999
v -7.4825 4.8768e-06 2.49
v -7.4825 20 2.49
v -7.4825 19.99 2.49999
v 7.4825 19.99 2.49999
v 7.4825 20 2.49
v 7.49001 20 2.48751
v 7.50001 19.99 2.48751
v 7.50001 19.99 -2.48751
v 7.49001 20 -2.48751
v 7.4825 20 -2.49
v 7.4825 19.99 -2.49999
v -7.4825 19.99 -2.49999
v -7.4825 20 -2.49
v -7.49001 20 -2.48751
v -7.50001 19.99 -2.48751
v -7.50001 19.99 2.48751
v -7.49001 20 2.48751
v 7.49001 0.01999 2.49999
v 7.50001 0.01999 2.49
v 7.50001 19.98 2.49
v 7.49001 19.98 2.49999
v -7.49001 19.98 2.49999
v -7.50001 19.98 2.49
v -7.50001 0.01999 2.49
v -7.49001 0.01999 2.49999
v 7.50001 0.01999 -2.49
v 7.49001 0.01999 -2.49999
v 7.49001 19.98 -2.49999
v 7.50001 19.98 -2.49
v -7.49001 0.01999 -2.49999
v -7.50001 0.01999 -2.49
v -7.50001 19.98 -2.49
v -7.49001 19.98 -2.49999
v 7.4825 20 2.49
v 7.4825 20.0261 2.48992
v -7.4825 20.0261 2.48992
v -7.4825 20 2.49
v 7.49001 20 2.48834
v 7.49001 20 -2.48668
v 7.49001 20.0261 2.48827
v -7.49001 20 -2.48668
v -7.49001 20 2.48834
v -7.49001 20.0261 2.48827
vt 0.131669 0.253413
vt 0.131669 0.141862
vt 0.499649 0.141862
vt 0.499649 0.253413
vt 0.994054 0.858138
vt 0.626192 0.858138
vt 0.626192 0.746625
vt 0.994054 0.746625
vt 0.13146 0.253947
vt 0.499439 0.253947
vt 0.499439 0.746293
vt 0.13146 0.746293
vt 0.500132 0.253947
vt 0.625629 0.253947
vt 0.625629 0.746293
vt 0.500132 0.746293
vt 0.626112 0.253947
vt 0.994094 0.253947
vt 0.994094 0.746293
vt 0.626112 0.746293
vt 0.00550164 0.253947
vt 0.130996 0.253947
vt 0.130996 0.746293
vt 0.00550164 0.746293
vt 0.131485 0.253693
vt 0.131201 0.25347
vt 0.131485 0.25347
vt 0.499834 0.25347
vt 0.500117 0.25347
vt 0.499834 0.253693
vt 0.131201 0.141806
vt 0.131485 0.141582
vt 0.131485 0.141806
vt 0.499834 0.141806
vt 0.499834 0.141582
vt 0.500117 0.141806
vt 0.994237 0.858418
vt 0.994237 0.858195
vt 0.994522 0.858195
vt 0.625727 0.858195
vt 0.62601 0.858195
vt 0.62601 0.858418
vt 0.994522 0.746568
vt 0.994237 0.746568
vt 0.994237 0.746344
vt 0.62601 0.746344
vt 0.62601 0.746568
vt 0.625727 0.746568
vt 0.131485 0.253413
vt 0.131201 0.253413
vt 0.131201 0.141862
vt 0.131485 0.141862
vt 0.131669 0.141806
vt 0.131669 0.141582
vt 0.499649 0.141582
vt 0.499649 0.141806
vt 0.499834 0.141862
vt 0.500117 0.141862
vt 0.500117 0.253413
vt 0.499834 0.253413
vt 0.499649 0.25347
vt 0.499649 0.253693
vt 0.131669 0.253693
vt 0.131669 0.25347
vt 0.994054 0.858195
vt 0.994054 0.858418
vt 0.626192 0.858418
vt 0.626192 0.858195
vt 0.62601 0.858138
vt 0.625727 0.858138
vt 0.625727 0.746625
vt 0.62601 0.746625
vt 0.626192 0.746568
vt 0.626192 0.746344
vt 0.994054 0.746344
vt 0.994054 0.746568
vt 0.994237 0.746625
vt 0.994522 0.746625
vt 0.994522 0.858138
vt 0.994237 0.858138
vt 0.499624 0.253947
vt 0.499907 0.253947
vt 0.499907 0.746293
vt 0.499624 0.746293
vt 0.131275 0.746293
vt 0.130991 0.746293
vt 0.130991 0.253947
vt 0.131275 0.253947
vt 0.625644 0.253947
vt 0.625929 0.253947
vt 0.625929 0.746293
vt 0.625644 0.746293
vt 0.994276 0.253947
vt 0.994562 0.253947
vt 0.994562 0.746293
vt 0.994276 0.746293
vt 0.626192 0.858195
vt 0.626192 0.858191
vt 0.994054 0.858191
vt 0.994054 0.858195
vt 0.62601 0.858158
vt 0.62601 0.746644
vt 0.62601 0.858155
vt 0.994237 0.746644
vt 0.994237 0.858158
vt 0.994237 0.858155
vt 0.131275 0.2537
vt 0.130991 0.2537
vt 0.13146 0.2537
vt 0.499439 0.2537
vt 0.131275 0.2537
vt 0.13146 0.2537
vt 0.00543827 0.253947
vt 0.00543827 0.746293
vt 0.994562 0.2537
vt 0.994276 0.2537
vt 0.00550164 0.2537
vt 0.130996 0.2537
vt 0.00543827 0.2537
vt 0.00550164 0.2537
vt 0.00543827 0.253947
vt 0.994054 0.858418
vt 0.626192 0.858418
vt 0.994237 0.858418
vt 0.994522 0.858195
vt 0.994237 0.858418
vt 0.994054 0.858418
vt 0.500104 0.746293
vt 0.500037 0.746293
vt 0.500037 0.253947
vt 0.500104 0.253947
vt 0.625727 0.858138
vt 0.625727 0.746625
vt 0.625727 0.858195
vt 0.62601 0.858418
vt 0.625727 0.858195
vt 0.625727 0.858138
vt 0.994522 0.746625
vt 0.994522 0.858138
vt 0.994522 0.746568
vt 0.994237 0.746344
vt 0.994522 0.746568
vt 0.994522 0.746625
vt 0.626192 0.746344
vt 0.994054 0.746344
vt 0.62601 0.746344
vt 0.625727 0.746568
vt 0.62601 0.746344
vt 0.626192 0.746344
vt 0.130959 0.253947
vt 0.13103 0.253947
vt 0.13103 0.746293
vt 0.130959 0.746293
vt 0.13103 0.2537
vt 0.13103 0.253947
vt 0.130959 0.253947
vt 0.130959 0.2537
vt 0.500132 0.2537
vt 0.625629 0.2537
vt 0.499907 0.2537
vt 0.499624 0.2537
vt 0.500037 0.2537
vt 0.500104 0.2537
vt 0.500104 0.253947
vt 0.500037 0.253947
vt 0.499624 0.2537
vt 0.499439 0.2537
vt 0.994094 0.2537
vt 0.626112 0.2537
vt 0.994276 0.2537
vt 0.994094 0.2537
vt 0.625929 0.2537
vt 0.625644 0.2537
vt 0.625929 0.2537
vt 0.626112 0.2537
vt 0.625611 0.253947
vt 0.625683 0.253947
vt 0.625683 0.746293
vt 0.625611 0.746293
vt 0.625683 0.2537
vt 0.625683 0.253947
vt 0.625611 0.253947
vt 0.625611 0.2537
vt 0.994522 0.858138
vt 0.994522 0.858195
vt 0.626192 0.858418
vt 0.62601 0.858418
vt 0.994054 0.746344
vt 0.994237 0.746344
vt 0.625727 0.746625
vt 0.625727 0.746568
vn -0.000324028 -0.99831 0.000734042
vn -0.000243033 -0.99831 -0.000978665
vn 0.000324028 -0.99831 -0.000734042
vn 0.000243033 -0.99831 0.000978665
vn -0.000968191 0.998307 -0.00261424
vn 0.000968053 0.998307 -0.00261299
vn 0.00206623 0.99828 -0.00758866
vn -0.00206637 0.99828 -0.00758991
vn 0 0 0.998311
vn 0 0 0.998311
vn 0 0 0.998311
vn 0 0 0.998311
vn 0.99831 0 0.00229682
vn 0.998312 -0.000571649 0
vn 0.99831 0 -0.00229682
vn 0.998312 0.000571321 0
vn 0 0 -0.998311
vn 0 0 -0.998311
vn 0 0 -0.998311
vn 0 0 -0.998311
vn -0.99831 0 -0.00229682
vn -0.998312 -0.000571649 0
vn -0.99831 0 0.00229682
vn -0.998312 0.000571321 0
vn -0.367205 -0.366892 0.853926
vn -0.853345 -0.367158 0.368351
vn -0.366921 -0.853361 0.368548
vn 0.367052 -0.853875 0.36719
vn 0.853164 -0.366897 0.369042
vn 0.367143 -0.367293 0.853783
vn -0.852726 -0.366378 -0.370609
vn -0.367143 -0.367293 -0.853783
vn -0.367077 -0.853165 -0.368844
vn 0.367443 -0.853795 -0.366974
vn 0.367205 -0.366892 -0.853925
vn 0.854053 -0.367137 -0.366696
vn -0.367325 0.367088 0.853785
vn -0.636993 0.507554 0.577284
vn -0.85286 0.366358 0.37031
vn 0.853378 0.367691 0.367753
vn 0.637397 0.507402 0.576973
vn 0.367842 0.367401 0.853438
vn -0.853459 0.367394 -0.367865
vn -0.367613 0.8522 -0.3706
vn -0.367376 0.367193 -0.853724
vn 0.367438 0.366791 -0.853867
vn 0.367863 0.852774 -0.368991
vn 0.853562 0.36633 -0.368678
vn -0.382994 -0.923735 0.0022132
vn -0.923482 -0.383608 0.00194862
vn -0.923802 -0.382817 -0.00443919
vn -0.383185 -0.923655 -0.00248051
vn -0.000149882 -0.923551 -0.383443
vn -6.21383e-05 -0.382895 -0.923782
vn 6.21672e-05 -0.382895 -0.923781
vn 0.000237715 -0.923646 -0.383217
vn 0.383264 -0.923626 -0.000452625
vn 0.923591 -0.383347 -0.000187494
vn 0.923698 -0.383085 0.00267658
vn 0.382922 -0.923767 0.000717916
vn 0.000149911 -0.923551 0.383443
vn 6.21671e-05 -0.382895 0.923782
vn -6.21384e-05 -0.382895 0.923781
vn -0.000237686 -0.923646 0.383217
vn -0.0585438 0.384407 0.921306
vn 0 0.382751 0.923841
vn 0.000631925 0.382751 0.923841
vn 0.0591763 0.384392 0.921271
vn 0.862444 0.505271 0.00232471
vn 0.923543 0.383462 0.00176142
vn 0.923759 0.382939 -0.00248865
vn 0.705911 0.705911 0
vn 0.00118828 0.921938 -0.387281
vn 0 0.382751 -0.923841
vn 0 0.382751 -0.923841
vn -0.00118828 0.921938 -0.387281
vn -0.705907 0.705907 -0.00324781
vn -0.923543 0.383462 -0.00176142
vn -0.923754 0.382934 0.00439732
vn -0.862444 0.505271 0.00251843
vn 0.382868 -0.000438409 0.923791
vn 0.922891 -0.00043808 0.385021
vn 0.923888 0.00105767 0.382634
vn 0.383135 0.000438715 0.923681
vn -0.383135 0 0.923681
vn -0.923001 0 0.384757
vn -0.923779 -0.000619401 0.382899
vn -0.382869 0 0.923791
vn 0.923779 -0.000619401 -0.382899
vn 0.382869 0 -0.923791
vn 0.383135 0 -0.923681
vn 0.923001 0 -0.384757
vn -0.382868 -0.000438409 -0.923791
vn -0.922891 -0.00043808 -0.385021
vn -0.923888 0.00105767 -0.382634
vn -0.383135 0.000438715 -0.923681
vn 0.10822 0.00139182 0.99244
vn 0.0762871 0.710111 0.69952
vn -0.0762868 0.710111 0.69952
vn -0.108219 0.00139023 0.99244
vn 0.778627 0.000877499 0.624915
vn 0.450377 0.892625 -0.00678553
vn 0.479949 0.78779 0.381889
vn -0.450377 0.892624 -0.00678776
vn -0.778628 0.000875469 0.624914
vn -0.479951 0.787791 0.381886
g detergent
usemtl wrapper
f 25/25/25 26/26/26 27/27/27
f 28/28/28 29/29/29 30/30/30
f 31/31/31 32/32/32 33/33/33
f 34/34/34 35/35/35 36/36/36
f 37/37/37 38/38/38 39/39/39
f 40/40/40 41/41/41 42/42/42
f 43/43/43 44/44/44 45/45/45
f 46/46/46 47/47/47 48/48/48
f 101/101/101 102/102/102 103/103/103
f 104/104/104 105/105/105 106/106/106
f 105/105/105 80/80/80 38/38/38
f 69/69/69 101/101/101 41/41/41
f 77/77/77 104/104/104 44/44/44
f 102/102/102 72/72/72 47/47/47
f 99/99/99 5/5/5 106/106/106
f 103/103/103 6/6/6 98/98/98
f 1/1/1 2/2/2 3/3/3 4/4/4
f 5/5/5 6/6/6 7/7/7 8/8/8
f 9/9/9 10/10/10 11/11/11 12/12/12
f 13/13/13 14/14/14 15/15/15 16/16/16
f 17/17/17 18/18/18 19/19/19 20/20/20
f 21/21/21 22/22/22 23/23/23 24/24/24
f 49/49/49 50/50/50 51/51/51 52/52/52
f 53/53/53 54/54/54 55/55/55 56/56/56
f 57/57/57 58/58/58 59/59/59 60/60/60
f 61/61/61 62/62/62 63/63/63 64/64/64
f 65/65/65 66/66/66 67/67/67 68/68/68
f 69/69/69 70/70/70 71/71/71 72/72/72
f 73/73/73 74/74/74 75/75/75 76/76/76
f 77/77/77 78/78/78 79/79/79 80/80/80
f 81/81/81 82/82/82 83/83/83 84/84/84
f 85/85/85 86/86/86 87/87/87 88/88/88
f 89/89/89 90/90/90 91/91/91 92/92/92
f 93/93/93 94/94/94 95/95/95 96/96/96
f 97/97/97 98/98/98 99/99/99 100/100/100
f 88/88/88 9/9/9 12/12/12 85/85/85
f 25/107/25 88/88/88 87/87/87 26/108/26
f 63/63/63 25/25/25 27/27/27 64/64/64
f 9/9/9 63/109/63 62/110/62 10/10/10
f 25/111/25 63/112/63 9/9/9 88/88/88
f 60/60/60 4/4/4 3/3/3 57/57/57
f 28/28/28 60/60/60 59/59/59 29/29/29
f 61/61/61 28/28/28 30/30/30 62/62/62
f 4/4/4 61/61/61 64/64/64 1/1/1
f 28/28/28 61/61/61 4/4/4 60/60/60
f 94/113/94 21/21/21 24/24/24 95/114/95
f 31/115/31 94/94/94 93/93/93 32/116/32
f 51/51/51 31/31/31 33/33/33 52/52/52
f 21/21/21 51/117/51 50/118/50 22/22/22
f 31/119/31 51/120/51 21/21/21 94/121/94
f 56/56/56 3/3/3 2/2/2 53/53/53
f 34/34/34 56/56/56 55/55/55 35/35/35
f 57/57/57 34/34/34 36/36/36 58/58/58
f 34/34/34 57/57/57 3/3/3 56/56/56
f 66/66/66 12/122/12 11/123/11 67/67/67
f 37/37/37 66/66/66 65/65/65 38/38/38
f 85/124/85 37/37/37 39/39/39 86/125/86
f 37/37/37 85/126/85 12/127/12 66/66/66
f 16/128/16 83/129/83 82/130/82 13/131/13
f 70/70/70 16/132/16 15/133/15 71/71/71
f 40/40/40 70/70/70 69/69/69 41/41/41
f 83/134/83 40/40/40 42/42/42 84/135/84
f 40/40/40 83/136/83 16/137/16 70/70/70
f 78/78/78 24/138/24 23/139/23 79/79/79
f 43/43/43 78/78/78 77/77/77 44/44/44
f 95/140/95 43/43/43 45/45/45 96/141/96
f 43/43/43 95/142/95 24/143/24 78/78/78
f 20/20/20 91/91/91 90/90/90 17/17/17
f 74/74/74 20/144/20 19/145/19 75/75/75
f 46/46/46 74/74/74 73/73/73 47/47/47
f 91/146/91 46/46/46 48/48/48 92/147/92
f 46/46/46 91/148/91 20/149/20 74/74/74
f 22/150/22 87/151/87 86/152/86 23/153/23
f 26/26/26 50/50/50 49/49/49 27/27/27
f 26/154/26 87/155/87 22/156/22 50/157/50
f 1/1/1 49/49/49 52/52/52 2/2/2
f 27/27/27 49/49/49 1/1/1 64/64/64
f 13/13/13 59/158/59 58/159/58 14/14/14
f 29/160/29 82/82/82 81/81/81 30/161/30
f 29/162/29 59/163/59 13/164/13 82/165/82
f 10/10/10 81/81/81 84/84/84 11/11/11
f 30/166/30 81/81/81 10/10/10 62/167/62
f 18/18/18 93/93/93 96/96/96 19/19/19
f 54/168/54 18/18/18 17/17/17 55/169/55
f 32/32/32 54/54/54 53/53/53 33/33/33
f 32/170/32 93/93/93 18/18/18 54/171/54
f 33/33/33 53/53/53 2/2/2 52/52/52
f 35/172/35 90/90/90 89/89/89 36/173/36
f 35/174/35 55/175/55 17/17/17 90/90/90
f 14/176/14 89/177/89 92/178/92 15/179/15
f 36/180/36 89/181/89 14/182/14 58/183/58
f 100/100/100 65/65/65 68/68/68 97/97/97
f 105/105/105 100/100/100 99/99/99 106/106/106
f 80/80/80 105/105/105 104/104/104 77/77/77
f 38/38/38 80/80/80 79/79/79 39/39/39
f 65/65/65 100/100/100 105/105/105 38/38/38
f 39/39/39 79/79/79 23/184/23 86/185/86
f 101/101/101 69/69/69 72/72/72 102/102/102
f 97/97/97 101/101/101 103/103/103 98/98/98
f 41/41/41 68/68/68 67/67/67 42/42/42
f 101/101/101 97/97/97 68/68/68 41/41/41
f 42/42/42 67/67/67 11/186/11 84/187/84
f 8/8/8 104/104/104 106/106/106 5/5/5
f 76/76/76 8/8/8 7/7/7 73/73/73
f 44/44/44 76/76/76 75/75/75 45/45/45
f 104/104/104 8/8/8 76/76/76 44/44/44
f 45/45/45 75/75/75 19/188/19 96/189/96
f 102/102/102 7/7/7 6/6/6 103/103/103
f 47/47/47 72/72/72 71/71/71 48/48/48
f 73/73/73 7/7/7 102/102/102 47/47/47
f 48/48/48 71/71/71 15/190/15 92/191/92
f 5/5/5 99/99/99 98/98/98 6/6/6
